<?xml version="1.0" encoding="iso-8859-1"?>
<!-- Generator: Adobe Illustrator 19.0.0, SVG Export Plug-In . SVG Version: 6.00 Build 0)  -->
<svg version="1.1" id="Capa_1" xmlns="http://www.w3.org/2000/svg" xmlns:xlink="http://www.w3.org/1999/xlink" x="0px" y="0px"
	 viewBox="0 0 400.181 400.181" style="enable-background:new 0 0 400.181 400.181;" xml:space="preserve">
<g>
	<path style="fill:#ED664C;" d="M306.24,131.381c26.3,3.7,46.3,25.6,46.3,52.6c0,28.5-22.3,51.7-50.4,53.2c-0.9,0.1-1.9,0.1-2.8,0.1
		c-23.8,0-44.2-15.8-51-37.3c1.5-4.9,2.2-10,2.2-15.4s-0.9-10.5-2.3-15.3h0.1c1-3.7,2.6-7.3,4.6-11v-0.2c2.2,0.3,4.5,0.4,6.7,0.4
		c19.9,0,37.3-11,46.5-27.2L306.24,131.381z"/>
	<path style="fill:#ED664C;" d="M215.24,134.681c-5.6-8.4-8.8-18.5-8.8-29.4c0-29.4,23.8-53.3,53.3-53.3c29.4,0,53.3,23.8,53.3,53.3
		c0,9.5-2.5,18.4-6.8,26.1c-9.1,16.2-26.5,27.2-46.5,27.2c-2.3,0-4.5-0.1-6.7-0.4c-3.7-0.5-7.3-1.3-10.8-2.5
		C231.04,151.681,221.54,144.281,215.24,134.681z"/>
	<path style="fill:#ED664C;" d="M302.14,237.281c2.8,6.8,5.1,14.2,5.1,22.1c0,29.5-23.8,53.3-53.3,53.3c-3,0-6-0.2-8.8-0.7
		c-25.2-4.2-44.4-26.1-44.4-52.5c0-0.5,0-1,0-1.5c0.2-7.4,1.9-14.2,5.1-20.6v-0.1c20.3-3.2,36.7-17.9,42.5-37.2
		c6.8,21.5,27.2,37.3,51,37.3C300.24,237.281,301.14,237.281,302.14,237.281L302.14,237.281z"/>
	<path style="fill:#ED664C;" d="M244.94,313.181c3.4,7.4,5.7,15.3,5.7,23.8c0,29.5-23.8,53.3-53.3,53.3s-53.3-23.8-53.3-53.3
		c0-9.6,2.3-18.7,6.8-26.1l-0.1-1.1c27.4-1.7,49.2-24.2,49.8-51.9h0.2c0,0.5,0,1,0,1.5c0,26.5,19.2,48.3,44.4,52.5L244.94,313.181z"
		/>
	<path style="fill:#ED664C;" d="M248.34,199.981c-5.8,19.3-22.2,34-42.5,37.2c-2.8,0.4-5.6,0.7-8.5,0.7c-0.1,0-0.2,0-0.3,0
		c-21.6-0.1-40.2-13-48.4-31.6c-2.9-6.6-4.6-13.9-4.6-21.7c0-9.4,2.7-18.3,6.5-26.1v-0.2c18.2-1.4,33.8-11.9,42.2-27
		c1.7,0,3.4,0,4.5,0c3,0,6,0.3,9,0.8c3.1,0.6,6.1,1.4,8.9,2.5c6.4,9.6,15.8,17.1,26.9,20.9v0.1c2.6,4.3,4.7,8.8,6.2,13.6
		s2.3,9.9,2.3,15.3C250.54,189.981,249.74,195.081,248.34,199.981z"/>
	<path style="fill:#ED664C;" d="M200.54,256.681c0,0.4,0,0.8,0,1.2c-0.6,27.8-22.3,50.2-49.8,51.9c-1.1,0.1-2.3,0.1-3.5,0.1
		c-29.5,0-53.3-23.8-53.3-53.3c0-7.4,1.7-14.2,4-20.4v-0.1c1,0,2,0.1,3,0.1c21,0,39.1-12.5,47.6-30l0,0
		c8.2,18.6,26.8,31.5,48.4,31.6v0.2C199.04,243.981,200.54,250.281,200.54,256.681z"/>
	<path style="fill:#ED664C;" d="M99.04,129.781c-3.8-7.3-6-15.7-6-24.5c0-29.4,23.8-53.3,53.3-53.3c27.6,0,50.3,20.9,53,47.8
		c0.2,1.8,0.3,3.6,0.3,5.4c0,9.5-2.5,18.4-6.8,26.1c-8.5,15.1-24.1,25.6-42.2,27c-1.4,0.1-2.8,0.2-4.2,0.2
		C125.74,158.581,107.84,146.881,99.04,129.781z"/>
	<path style="fill:#ED664C;" d="M150.54,158.381v0.2c-3.8,7.8-6.5,16.7-6.5,26.1c0,7.7,1.6,15,4.6,21.7l0,0
		c-8.5,17.6-26.6,30-47.6,30c-1,0-2,0-3-0.1c-28.1-1.5-50.3-24.7-50.3-53.2c0-28.8,23.1-52,51.3-53.2c8.9,17.1,26.7,28.8,47.3,28.8
		C147.74,158.581,149.14,158.481,150.54,158.381z"/>
</g>
<path d="M319.94,124.481c2-6.2,3-12.7,3-19.2c0-34.9-28.4-63.3-63.3-63.3c-19.7,0-37.3,9-48.9,23.1c3.3-21.6,11.7-39.1,23.6-46.6
	c4.7-2.9,6.1-9.1,3.1-13.8c-2.9-4.7-9.1-6.1-13.8-3.1c-16.5,10.4-28,32.2-32.4,59.1c-11.5-11.6-27.4-18.7-45-18.7
	c-34.9,0-63.3,28.4-63.3,63.3c0,5.6,0.8,11.2,2.2,16.5c-27.5,7.1-47.5,31.9-47.5,61.2c0,29.4,20.1,54.3,47.6,61.3
	c-0.9,4.2-1.3,8.3-1.3,12.3c0,31.2,22.7,57.2,52.5,62.3c-1.6,5.6-2.5,11.7-2.5,18c0,34.9,28.4,63.3,63.3,63.3s63.3-28.4,63.3-63.3
	c0-4.8-0.6-9.7-1.8-14.6c32.7-2.5,58.5-29.8,58.5-63.1c0-5.1-0.8-9.9-1.9-14.2c27.3-7.1,47.2-31.9,47.2-61.2
	C362.54,156.581,345.24,133.181,319.94,124.481z M259.64,61.981c23.9,0,43.3,19.4,43.3,43.3c0,7.4-1.9,14.7-5.5,21.2
	c-7.7,13.6-22.1,22.1-37.7,22.1c-1.9,0-3.7-0.1-5.5-0.3c-3-0.4-5.9-1.1-8.8-2.1c-8.9-3.1-16.7-9.1-21.9-17l0,0
	c-4.7-7.1-7.2-15.3-7.2-23.8C216.34,81.381,235.74,61.981,259.64,61.981z M204.24,227.481c-2.3,0.4-4.6,0.7-6.9,0.7h-0.2
	c-17,0-32.4-10.3-39.3-25.8c-2.5-5.5-3.7-11.5-3.7-17.7c0-5.5,1.2-11.3,3.5-17.1c16.5-3,31.2-12.4,40.8-26.2c1.5,0,2.9,0.1,4.4,0.3
	c1.2,0.5,2.4,0.7,3.7,0.7c0.1,0,0.1,0,0.2,0c0.8,0.2,1.6,0.4,2.4,0.6c6.7,9,15.8,16.1,26.1,20.5c1.5,2.9,2.8,5.8,3.7,8.7
	c1.3,4.1,1.9,8.2,1.9,12.3c0,4.3-0.6,8.6-1.8,12.6C234.04,212.981,220.44,224.881,204.24,227.481z M146.34,61.981
	c22.3,0,40.8,16.7,43,38.8c0.1,1.5,0.2,3,0.2,4.5c0,7.4-1.9,14.7-5.5,21.2c-7.1,12.6-19.9,20.8-34.3,22c-1.2,0.1-2.3,0.1-3.5,0.1
	c-16.2,0-30.9-8.9-38.4-23.4l0,0c-3.2-6.2-4.8-12.9-4.8-19.9C103.04,81.381,122.44,61.981,146.34,61.981z M57.74,183.081
	c0-21.3,15.4-39,36-42.6c9.8,14.7,25.3,24.6,42.7,27.3c-1.6,5.7-2.3,11.3-2.3,16.9c0,7.2,1.2,14.2,3.5,20.9
	c-7.7,12.7-21.7,20.8-36.6,20.8c-0.8,0-1.6,0-2.4-0.1C75.64,224.981,57.74,205.981,57.74,183.081z M104.04,256.681
	c0-3.4,0.5-6.8,1.4-10.6c16.6-1.2,32-9.1,42.9-21.5c10.2,12.4,24.9,20.7,41.1,22.7c0.8,3.4,1.2,6.5,1.2,9.3c0,0.2,0,0.5,0,0.7
	c0,0.1,0,0.2,0,0.3c-0.5,22.6-17.9,40.7-40.5,42.2c-0.9,0.1-1.8,0.1-2.8,0.1C123.44,299.981,104.04,280.581,104.04,256.681z
	 M197.34,380.281c-23.9,0-43.3-19.4-43.3-43.3c0-6.7,1.3-12.8,3.8-17.9c13.4-2.2,25.6-8.7,35.1-18.5c2.5-2.6,4.8-5.5,6.8-8.5
	c8.2,13.6,21.4,23.9,37.3,28.3c2.3,5.8,3.5,11.3,3.5,16.6C240.54,360.881,221.14,380.281,197.34,380.281z M253.94,302.681
	c-2.4,0-4.8-0.2-7.2-0.6c-20.9-3.5-36.1-21.4-36.1-42.7c0-0.4,0-0.8,0-1.2c0.1-4.4,0.9-8.4,2.3-12.3c14.4-3.7,26.9-12.4,35.5-24.2
	c11,14.6,28,24.1,46.6,25.4c1.4,4.5,2.1,8.5,2.1,12.3C297.24,283.281,277.84,302.681,253.94,302.681z M301.64,227.181h-0.1
	c-0.6,0-1.3,0.1-2.2,0.1c-17.8,0-34.1-11.3-40.5-27.7c1.2-4.9,1.8-9.9,1.8-15c0-5-0.6-10-1.9-15c0.1-0.4,0.3-0.7,0.4-1.1
	c0.2,0,0.3,0,0.5,0c20.3,0,39.3-9.8,51.1-26c18.8,5.2,31.8,21.8,31.8,41.5C342.54,207.081,324.54,226.081,301.64,227.181z"/>
<g>
</g>
<g>
</g>
<g>
</g>
<g>
</g>
<g>
</g>
<g>
</g>
<g>
</g>
<g>
</g>
<g>
</g>
<g>
</g>
<g>
</g>
<g>
</g>
<g>
</g>
<g>
</g>
<g>
</g>
</svg>
