<?xml version="1.0" encoding="iso-8859-1"?>
<!-- Generator: Adobe Illustrator 19.0.0, SVG Export Plug-In . SVG Version: 6.00 Build 0)  -->
<svg version="1.1" id="Capa_1" xmlns="http://www.w3.org/2000/svg" xmlns:xlink="http://www.w3.org/1999/xlink" x="0px" y="0px"
	 viewBox="0 0 512 512" style="enable-background:new 0 0 512 512;" xml:space="preserve">
<g>
	<g fill="#fff">
		<path d="M466.998,0H287c-19.555,0-36.228,12.541-42.42,30H45.002c-24.813,0-45,20.187-45,45v301.998c0,24.813,20.187,45,45,45
			h130.187l-20,60h-49.188c-8.284,0-15,6.716-15,15s6.716,15,15,15h59.898c0.035,0,0.07,0.004,0.104,0.004
			c0.035,0,0.07-0.004,0.105-0.004h149.785c0.035,0,0.07,0.004,0.105,0.004c0.035,0,0.069-0.004,0.104-0.004h59.898
			c8.284,0,15-6.716,15-15s-6.716-15-15-15h-49.188l-20-60h130.187c24.813,0,45-20.187,45-45V208.418
			c17.459-6.192,30-22.865,30-42.42V45C511.998,20.187,491.811,0,466.998,0z M186.813,481.996l20-60h68.376l19.999,60H186.813z
			 M451.999,376.997c0,8.271-6.729,15-15,15c-4.866,0-378.727,0-391.997,0c-8.271,0-15-6.729-15-15v-16
			c18.196,0,408.282,0,421.997,0V376.997z M151.001,240.998c33.084,0,60,26.916,60,60v30H91.001v-30
			C91.001,267.914,117.917,240.998,151.001,240.998z M121.001,180.999c0-16.542,13.458-30,30-30s30,13.458,30,30s-13.458,30-30,30
			S121.001,197.54,121.001,180.999z M451.999,330.997H241v-30c0-33.852-18.79-63.393-46.484-78.756
			C204.72,211.48,211,196.963,211,180.999c0-33.084-26.916-60-60-60s-60,26.916-60,60c0,15.965,6.28,30.482,16.484,41.243
			c-27.694,15.363-46.484,44.905-46.484,78.756v30h-31V74.999c0-8.271,6.729-15,15-15H242v105.999c0,24.813,20.187,45,45,45h15v45
			c0,6.067,3.655,11.536,9.26,13.858s12.057,1.038,16.347-3.251l55.606-55.607h68.786V330.997z M481.998,165.999
			c0,8.271-6.729,15-15,15h-89.999c-3.978,0-7.793,1.58-10.606,4.393l-34.394,34.394v-23.787c0-8.284-6.716-15-15-15h-30
			c-8.271,0-15-6.729-15-15V45c0-8.271,6.729-15,15-15h179.999c8.271,0,15,6.729,15,15V165.999z"/>
	</g>
</g>
<g fill="#fff">
	<g>
		<path d="M432.605,65.393c-5.857-5.858-15.355-5.858-21.212,0l-49.394,49.394l-19.394-19.394c-5.857-5.858-15.355-5.858-21.213,0
			c-5.858,5.858-5.858,15.355,0,21.213l30,30c5.857,5.857,15.355,5.858,21.213,0l60-60C438.463,80.747,438.463,71.25,432.605,65.393
			z"/>
	</g>
</g>
<g>
</g>
<g>
</g>
<g>
</g>
<g>
</g>
<g>
</g>
<g>
</g>
<g>
</g>
<g>
</g>
<g>
</g>
<g>
</g>
<g>
</g>
<g>
</g>
<g>
</g>
<g>
</g>
<g>
</g>
</svg>
